<svg xmlns="http://www.w3.org/2000/svg" viewBox="0 0 31.36 28.77"><defs><style>.cls-1{fill:#cf7749;}.cls-2{fill:#040502;}</style></defs><g id="Layer_2" data-name="Layer 2"><g id="Layer_1-2" data-name="Layer 1"><path class="cls-1" d="M30.68,8.23c-1.53-2.91-5.46-4.31-8.79-3.51A.81.81,0,0,1,21,4.19,7,7,0,0,0,16.25.12,5.34,5.34,0,0,0,9.93,3.93,5.63,5.63,0,0,1,15.23,2a5,5,0,0,1,3.88,3,2.84,2.84,0,0,0,3.26,1.72,5.75,5.75,0,0,1,6.28,2.6,4.37,4.37,0,0,1-1,5.25,3.66,3.66,0,0,1-3.46.78c-2.54-.58-5.63-3-9-5.91-.47-.4-.92-.79-1.37-1.16C10.3,5.34,7.55,5,5.86,5.26a7.59,7.59,0,0,0-4.55,2.4c-2.19,2.53-2.1,9.16,3.94,9.8,5.38.57,9.61-4,9.61-4-4.94,3.71-10.53,2.81-12-.36-1.19-2.54,1.49-9.17,9.63-3.22.46.34.89.75,1.35,1.15,4.66,4,10.75,9.09,15.19,5.09a7.18,7.18,0,0,0,1.74-2.38A6.16,6.16,0,0,0,30.68,8.23Z"/><path class="cls-2" d="M3.25,28.77a5.63,5.63,0,0,1-1.75-.28,3.54,3.54,0,0,1-1.31-.73l.42-.89a3.49,3.49,0,0,0,1.16.66,4.17,4.17,0,0,0,1.48.27,3.41,3.41,0,0,0,1.12-.16A1.37,1.37,0,0,0,5,27.2a1,1,0,0,0,.21-.64A.87.87,0,0,0,5,25.9a2,2,0,0,0-.7-.4,8.26,8.26,0,0,0-.94-.27l-1-.27a4.73,4.73,0,0,1-.95-.39,2,2,0,0,1-.69-.65,1.91,1.91,0,0,1-.26-1,2.1,2.1,0,0,1,.33-1.14,2.26,2.26,0,0,1,1-.83,4.12,4.12,0,0,1,1.73-.31,5.45,5.45,0,0,1,1.38.18A3.81,3.81,0,0,1,6,21.31l-.38.91a3.53,3.53,0,0,0-1.08-.5,4.35,4.35,0,0,0-1.11-.15,3.16,3.16,0,0,0-1.11.17,1.3,1.3,0,0,0-.63.46,1.1,1.1,0,0,0-.2.63.88.88,0,0,0,.27.68,2.09,2.09,0,0,0,.69.4,9.72,9.72,0,0,0,.94.26c.35.08.69.17,1,.27a4.41,4.41,0,0,1,.94.39,1.85,1.85,0,0,1,.69.64,1.81,1.81,0,0,1,.27,1A2.06,2.06,0,0,1,6,27.62a2.34,2.34,0,0,1-1,.83A4.18,4.18,0,0,1,3.25,28.77Z"/><path class="cls-2" d="M6.79,28.67l3.62-8h1.13l3.63,8H14l-3.23-7.34h.46L8,28.67Zm1.54-2,.31-.91h4.49l.34.91Z"/><path class="cls-2" d="M15.17,28.67l3.61-8h1.13l3.63,8h-1.2l-3.23-7.34h.46l-3.23,7.34Zm1.54-2,.3-.91h4.5l.33.91Z"/><path class="cls-2" d="M24.72,28.67v-8h3.12a4.37,4.37,0,0,1,1.79.33,2.57,2.57,0,0,1,1.14,1,2.7,2.7,0,0,1,.4,1.49,2.65,2.65,0,0,1-.4,1.49,2.57,2.57,0,0,1-1.14,1,4.36,4.36,0,0,1-1.79.34H25.35l.52-.54v3Zm1.15-2.84-.52-.57H27.8a2.55,2.55,0,0,0,1.66-.46A1.64,1.64,0,0,0,30,23.47a1.61,1.61,0,0,0-.57-1.32,2.55,2.55,0,0,0-1.66-.47H25.35l.52-.57Z"/></g></g></svg>